# xmcd CD database file
#
# Track frame offsets:
#	150
#	16144
#	31970
#	46122
#	59501
#	74170
#	87120
#	101386
#	113298
#	125133
#	139284
#	154853
#	171191
#
# Disc length: 2428 seconds
#
# Revision: 0
# Processed by: cddbd v1.5.2PL0 Copyright (c) Steve Scherf et al.
# Submitted via: CDex 1.51
#
DISCID=ab097a0d
DTITLE=Charlie Parker - No Noise CD4
DYEAR=2006
DGENRE=Jazz
TTITLE0=Temptation
TTITLE1=Autumn In New York
TTITLE2=Lover
TTITLE3=Stella By Starlight
TTITLE4=Dancing In The Night
TTITLE5=Laura
TTITLE6=Night And Day
TTITLE7=I Can't Get Started
TTITLE8=What Is This Thing Called Love?
TTITLE9=Almost Like Being In Love
TTITLE10=In The Still Of The Night
TTITLE11=Old Folks
TTITLE12=If I Love Again
EXTD=YEAR: 2006
EXTT0=
EXTT1=
EXTT2=
EXTT3=
EXTT4=
EXTT5=
EXTT6=
EXTT7=
EXTT8=
EXTT9=
EXTT10=
EXTT11=
EXTT12=
PLAYORDER=
